<svg xmlns="http://www.w3.org/2000/svg" width="600" height="380" style="background:#f8fafc;font-family:Arial,sans-serif">
  <text x="300" y="28" text-anchor="middle" font-size="16" font-weight="bold" fill="#1e293b">MST Edge Weight Distribution</text>
  <text x="300" y="46" text-anchor="middle" font-size="11" fill="#64748b">100-Village Network · Frequency of cable lengths (km)</text>
  <line x1="60" y1="320" x2="550" y2="320" stroke="#94a3b8" stroke-width="1.5"/>
  <line x1="60" y1="320" x2="60" y2="55" stroke="#94a3b8" stroke-width="1.5"/>
  <text x="300" y="372" text-anchor="middle" font-size="11" fill="#64748b">Distance Range (km)</text>
  <text x="14" y="190" text-anchor="middle" font-size="11" fill="#64748b" transform="rotate(-90,14,190)">Frequency</text>
  <rect x="62" y="205" width="44" height="115" fill="#3b82f6" rx="3" opacity="0.85"/>
  <text x="84" y="201" text-anchor="middle" font-size="10" fill="#374151">9</text>
  <text x="84" y="334" text-anchor="middle" font-size="8" fill="#64748b" transform="rotate(-35,84,334)">1.1</text>
  <rect x="110" y="205" width="44" height="115" fill="#6366f1" rx="3" opacity="0.85"/>
  <text x="132" y="201" text-anchor="middle" font-size="10" fill="#374151">9</text>
  <text x="132" y="334" text-anchor="middle" font-size="8" fill="#64748b" transform="rotate(-35,132,334)">2.5</text>
  <rect x="158" y="90" width="44" height="230" fill="#8b5cf6" rx="3" opacity="0.85"/>
  <text x="180" y="86" text-anchor="middle" font-size="10" fill="#374151">18</text>
  <text x="180" y="334" text-anchor="middle" font-size="8" fill="#64748b" transform="rotate(-35,180,334)">3.8</text>
  <rect x="206" y="153.88888888888889" width="44" height="166.11111111111111" fill="#a855f7" rx="3" opacity="0.85"/>
  <text x="228" y="149.88888888888889" text-anchor="middle" font-size="10" fill="#374151">13</text>
  <text x="228" y="334" text-anchor="middle" font-size="8" fill="#64748b" transform="rotate(-35,228,334)">5.1</text>
  <rect x="254" y="256.1111111111111" width="44" height="63.888888888888914" fill="#ec4899" rx="3" opacity="0.85"/>
  <text x="276" y="252.1111111111111" text-anchor="middle" font-size="10" fill="#374151">5</text>
  <text x="276" y="334" text-anchor="middle" font-size="8" fill="#64748b" transform="rotate(-35,276,334)">6.5</text>
  <rect x="302" y="128.33333333333331" width="44" height="191.66666666666669" fill="#ef4444" rx="3" opacity="0.85"/>
  <text x="324" y="124.33333333333331" text-anchor="middle" font-size="10" fill="#374151">15</text>
  <text x="324" y="334" text-anchor="middle" font-size="8" fill="#64748b" transform="rotate(-35,324,334)">7.8</text>
  <rect x="350" y="141.11111111111111" width="44" height="178.88888888888889" fill="#f97316" rx="3" opacity="0.85"/>
  <text x="372" y="137.11111111111111" text-anchor="middle" font-size="10" fill="#374151">14</text>
  <text x="372" y="334" text-anchor="middle" font-size="8" fill="#64748b" transform="rotate(-35,372,334)">9.2</text>
  <rect x="398" y="243.33333333333334" width="44" height="76.66666666666666" fill="#eab308" rx="3" opacity="0.85"/>
  <text x="420" y="239.33333333333334" text-anchor="middle" font-size="10" fill="#374151">6</text>
  <text x="420" y="334" text-anchor="middle" font-size="8" fill="#64748b" transform="rotate(-35,420,334)">10.5</text>
  <rect x="446" y="217.77777777777777" width="44" height="102.22222222222223" fill="#22c55e" rx="3" opacity="0.85"/>
  <text x="468" y="213.77777777777777" text-anchor="middle" font-size="10" fill="#374151">8</text>
  <text x="468" y="334" text-anchor="middle" font-size="8" fill="#64748b" transform="rotate(-35,468,334)">11.8</text>
  <rect x="494" y="294.44444444444446" width="44" height="25.555555555555543" fill="#14b8a6" rx="3" opacity="0.85"/>
  <text x="516" y="290.44444444444446" text-anchor="middle" font-size="10" fill="#374151">2</text>
  <text x="516" y="334" text-anchor="middle" font-size="8" fill="#64748b" transform="rotate(-35,516,334)">13.2</text>
</svg>