<svg xmlns="http://www.w3.org/2000/svg" width="580" height="360" style="background:#f8fafc;font-family:Arial,sans-serif">
  <text x="290" y="28" text-anchor="middle" font-size="16" font-weight="bold" fill="#1e293b">Kruskal's Steps — Edge Processing</text>
  <text x="290" y="46" text-anchor="middle" font-size="11" fill="#64748b">Green = Added to MST · Red = Skipped (cycle)</text>
  <line x1="55" y1="305" x2="535" y2="305" stroke="#94a3b8" stroke-width="1.5"/>
  <line x1="55" y1="305" x2="55" y2="55" stroke="#94a3b8" stroke-width="1.5"/>
  <text x="290" y="352" text-anchor="middle" font-size="11" fill="#64748b">Edge (Village Pair)</text>
  <text x="14" y="180" text-anchor="middle" font-size="11" fill="#64748b" transform="rotate(-90,14,180)">Distance (km)</text>
  <rect x="57" y="206.61300899000923" width="62.14285714285714" height="98.38699100999077" fill="#16a34a" rx="3" opacity="0.85"/>
  <text x="88.07142857142857" y="202.61300899000923" text-anchor="middle" font-size="9" fill="#374151">2.2</text>
  <text x="88.07142857142857" y="318" text-anchor="middle" font-size="9" fill="#374151">B-D</text>
  <text x="88.07142857142857" y="329" text-anchor="middle" font-size="8" fill="#16a34a">✓</text>
  <rect x="124.14285714285714" y="180.54920651116765" width="62.14285714285714" height="124.45079348883235" fill="#16a34a" rx="3" opacity="0.85"/>
  <text x="155.21428571428572" y="176.54920651116765" text-anchor="middle" font-size="9" fill="#374151">2.8</text>
  <text x="155.21428571428572" y="318" text-anchor="middle" font-size="9" fill="#374151">D-Z</text>
  <text x="155.21428571428572" y="329" text-anchor="middle" font-size="8" fill="#16a34a">✓</text>
  <rect x="191.28571428571428" y="146.35574387958448" width="62.14285714285714" height="158.64425612041552" fill="#16a34a" rx="3" opacity="0.85"/>
  <text x="222.35714285714283" y="142.35574387958448" text-anchor="middle" font-size="9" fill="#374151">3.6</text>
  <text x="222.35714285714283" y="318" text-anchor="middle" font-size="9" fill="#374151">G-E</text>
  <text x="222.35714285714283" y="329" text-anchor="middle" font-size="8" fill="#16a34a">✓</text>
  <rect x="258.42857142857144" y="123.58335247282292" width="62.14285714285714" height="181.41664752717708" fill="#ef4444" rx="3" opacity="0.85"/>
  <text x="289.5" y="119.58335247282292" text-anchor="middle" font-size="9" fill="#374151">4.1</text>
  <text x="289.5" y="318" text-anchor="middle" font-size="9" fill="#374151">B-Z</text>
  <text x="289.5" y="329" text-anchor="middle" font-size="8" fill="#ef4444">✗</text>
  <rect x="325.57142857142856" y="85" width="62.14285714285714" height="220" fill="#16a34a" rx="3" opacity="0.85"/>
  <text x="356.6428571428571" y="81" text-anchor="middle" font-size="9" fill="#374151">5.0</text>
  <text x="356.6428571428571" y="318" text-anchor="middle" font-size="9" fill="#374151">A-B</text>
  <text x="356.6428571428571" y="329" text-anchor="middle" font-size="8" fill="#16a34a">✓</text>
  <rect x="392.71428571428567" y="85" width="62.14285714285714" height="220" fill="#16a34a" rx="3" opacity="0.85"/>
  <text x="423.7857142857142" y="81" text-anchor="middle" font-size="9" fill="#374151">5.0</text>
  <text x="423.7857142857142" y="318" text-anchor="middle" font-size="9" fill="#374151">B-G</text>
  <text x="423.7857142857142" y="329" text-anchor="middle" font-size="8" fill="#16a34a">✓</text>
  <rect x="459.85714285714283" y="85" width="62.14285714285714" height="220" fill="#ef4444" rx="3" opacity="0.85"/>
  <text x="490.9285714285714" y="81" text-anchor="middle" font-size="9" fill="#374151">5.0</text>
  <text x="490.9285714285714" y="318" text-anchor="middle" font-size="9" fill="#374151">D-E</text>
  <text x="490.9285714285714" y="329" text-anchor="middle" font-size="8" fill="#ef4444">✗</text>
  <rect x="55" y="342" width="12" height="12" fill="#16a34a" rx="2"/>
  <text x="71" y="352" font-size="11" fill="#374151">Added to MST</text>
  <rect x="175" y="342" width="12" height="12" fill="#ef4444" rx="2"/>
  <text x="191" y="352" font-size="11" fill="#374151">Skipped (cycle)</text>
</svg>