<svg xmlns="http://www.w3.org/2000/svg" width="560" height="380" style="background:#f8fafc;font-family:Arial,sans-serif">
  <text x="280" y="28" text-anchor="middle" font-size="16" font-weight="bold" fill="#1e293b">Time Complexity Growth — O(E log E)</text>
  <text x="280" y="46" text-anchor="middle" font-size="11" fill="#64748b">Operations vs Number of Villages (V)</text>
  <line x1="65" y1="315" x2="505" y2="315" stroke="#94a3b8" stroke-width="1.5"/>
  <line x1="65" y1="315" x2="65" y2="55" stroke="#94a3b8" stroke-width="1.5"/>
  <text x="280" y="372" text-anchor="middle" font-size="11" fill="#64748b">Number of Villages (V)</text>
  <text x="14" y="190" text-anchor="middle" font-size="11" fill="#64748b" transform="rotate(-90,14,190)">Operations (E·log E)</text>
  <line x1="65" y1="257.5" x2="495" y2="257.5" stroke="#e2e8f0" stroke-width="1"/>
  <line x1="65" y1="200" x2="495" y2="200" stroke="#e2e8f0" stroke-width="1"/>
  <line x1="65" y1="142.5" x2="495" y2="142.5" stroke="#e2e8f0" stroke-width="1"/>
  <line x1="65" y1="85" x2="495" y2="85" stroke="#e2e8f0" stroke-width="1"/>
  <path d="M 65 315 L 65 314.0643879689079 L 112.77777777777777 309.5549036495195 L 160.55555555555554 300.5655850065279 L 208.33333333333334 286.6298457084972 L 256.1111111111111 267.4240883014873 L 303.8888888888889 242.69966453322712 L 351.6666666666667 212.25443256492605 L 399.44444444444446 175.91800960884686 L 447.22222222222223 133.54310757974432 L 495 85 L 495 315 Z" fill="#3b82f6" opacity="0.15"/>
  <path d="M 65 314.0643879689079 L 112.77777777777777 309.5549036495195 L 160.55555555555554 300.5655850065279 L 208.33333333333334 286.6298457084972 L 256.1111111111111 267.4240883014873 L 303.8888888888889 242.69966453322712 L 351.6666666666667 212.25443256492605 L 399.44444444444446 175.91800960884686 L 447.22222222222223 133.54310757974432 L 495 85" fill="none" stroke="#3b82f6" stroke-width="2.5"/>
  <circle cx="65" cy="314.0643879689079" r="5" fill="#3b82f6" stroke="white" stroke-width="2"/>
  <text x="65" y="329" text-anchor="middle" font-size="10" fill="#64748b">10</text>
  <circle cx="112.77777777777777" cy="309.5549036495195" r="5" fill="#3b82f6" stroke="white" stroke-width="2"/>
  <text x="112.77777777777777" y="329" text-anchor="middle" font-size="10" fill="#64748b">20</text>
  <circle cx="160.55555555555554" cy="300.5655850065279" r="5" fill="#3b82f6" stroke="white" stroke-width="2"/>
  <text x="160.55555555555554" y="329" text-anchor="middle" font-size="10" fill="#64748b">30</text>
  <circle cx="208.33333333333334" cy="286.6298457084972" r="5" fill="#3b82f6" stroke="white" stroke-width="2"/>
  <text x="208.33333333333334" y="329" text-anchor="middle" font-size="10" fill="#64748b">40</text>
  <circle cx="256.1111111111111" cy="267.4240883014873" r="5" fill="#3b82f6" stroke="white" stroke-width="2"/>
  <text x="256.1111111111111" y="329" text-anchor="middle" font-size="10" fill="#64748b">50</text>
  <circle cx="303.8888888888889" cy="242.69966453322712" r="5" fill="#3b82f6" stroke="white" stroke-width="2"/>
  <text x="303.8888888888889" y="329" text-anchor="middle" font-size="10" fill="#64748b">60</text>
  <circle cx="351.6666666666667" cy="212.25443256492605" r="5" fill="#3b82f6" stroke="white" stroke-width="2"/>
  <text x="351.6666666666667" y="329" text-anchor="middle" font-size="10" fill="#64748b">70</text>
  <circle cx="399.44444444444446" cy="175.91800960884686" r="5" fill="#3b82f6" stroke="white" stroke-width="2"/>
  <text x="399.44444444444446" y="329" text-anchor="middle" font-size="10" fill="#64748b">80</text>
  <circle cx="447.22222222222223" cy="133.54310757974432" r="5" fill="#3b82f6" stroke="white" stroke-width="2"/>
  <text x="447.22222222222223" y="329" text-anchor="middle" font-size="10" fill="#64748b">90</text>
  <circle cx="495" cy="85" r="5" fill="#3b82f6" stroke="white" stroke-width="2"/>
  <text x="495" y="329" text-anchor="middle" font-size="10" fill="#64748b">100</text>
</svg>